<svg width="30" height="30" viewBox="0 0 30 30" fill="none" xmlns="http://www.w3.org/2000/svg">
<rect width="30" height="30" rx="6" fill="#192351"/>
<path d="M23 20.5102C20.6988 22.7292 18.5 24 15 24C11.7138 24 9.08988 22.5253 7 20.5102" stroke="white" stroke-width="3" stroke-linecap="round"/>
<path d="M15.6859 20C14.2498 20 13.2195 19.5863 12.5951 18.759C11.9862 17.9316 11.6818 16.8467 11.6818 15.5042V10.7976H9.58958C9.31343 10.7976 9.08958 10.5738 9.08958 10.2976V8.72069C9.08958 8.45436 9.29834 8.23477 9.56434 8.22132L11.8692 8.10483L12.2111 5.45009C12.2432 5.2007 12.4555 5.01395 12.707 5.01395H14.624C14.9001 5.01395 15.124 5.23781 15.124 5.51395V8.10483H18.4104C18.6866 8.10483 18.9104 8.32868 18.9104 8.60483V10.2976C18.9104 10.5738 18.6866 10.7976 18.4104 10.7976H15.124V15.4574C15.124 16.113 15.2566 16.5891 15.522 16.8857C15.803 17.1667 16.1699 17.3072 16.6226 17.3072C16.8099 17.3072 16.9972 17.2838 17.1845 17.2369C17.4716 17.1707 17.7796 17.3359 17.8415 17.624L18.166 19.1337C18.2202 19.3858 18.0738 19.6384 17.8242 19.7035C17.6248 19.7555 17.4038 19.8075 17.1611 19.8595C16.7396 19.9532 16.2479 20 15.6859 20Z" fill="white"/>
</svg>
